<svg id="visual" viewBox="0 0 960 540" width="960" height="540" xmlns="http://www.w3.org/2000/svg" xmlns:xlink="http://www.w3.org/1999/xlink" version="1.1"><rect x="0" y="0" width="960" height="540" fill="#abdbff"></rect><path d="M766 540L760.2 527.2C754.3 514.3 742.7 488.7 742.7 463C742.7 437.3 754.3 411.7 760.2 386C766 360.3 766 334.7 757.3 308.8C748.7 283 731.3 257 730.8 231.2C730.3 205.3 746.7 179.7 752 154C757.3 128.3 751.7 102.7 753.5 77C755.3 51.3 764.7 25.7 769.3 12.8L774 0L960 0L960 12.8C960 25.7 960 51.3 960 77C960 102.7 960 128.3 960 154C960 179.7 960 205.3 960 231.2C960 257 960 283 960 308.8C960 334.7 960 360.3 960 386C960 411.7 960 437.3 960 463C960 488.7 960 514.3 960 527.2L960 540Z" fill="#b6fff8"></path><path d="M789 540L792.3 527.2C795.7 514.3 802.3 488.7 803.8 463C805.3 437.3 801.7 411.7 803.8 386C806 360.3 814 334.7 808.8 308.8C803.7 283 785.3 257 775.5 231.2C765.7 205.3 764.3 179.7 762.7 154C761 128.3 759 102.7 764.7 77C770.3 51.3 783.7 25.7 790.3 12.8L797 0L960 0L960 12.8C960 25.7 960 51.3 960 77C960 102.7 960 128.3 960 154C960 179.7 960 205.3 960 231.2C960 257 960 283 960 308.8C960 334.7 960 360.3 960 386C960 411.7 960 437.3 960 463C960 488.7 960 514.3 960 527.2L960 540Z" fill="#81dce8"></path><path d="M810 540L815.2 527.2C820.3 514.3 830.7 488.7 835.3 463C840 437.3 839 411.7 835.8 386C832.7 360.3 827.3 334.7 825.2 308.8C823 283 824 257 829.5 231.2C835 205.3 845 179.7 844.5 154C844 128.3 833 102.7 824.5 77C816 51.3 810 25.7 807 12.8L804 0L960 0L960 12.8C960 25.7 960 51.3 960 77C960 102.7 960 128.3 960 154C960 179.7 960 205.3 960 231.2C960 257 960 283 960 308.8C960 334.7 960 360.3 960 386C960 411.7 960 437.3 960 463C960 488.7 960 514.3 960 527.2L960 540Z" fill="#54b7d9"></path><path d="M898 540L893.2 527.2C888.3 514.3 878.7 488.7 873 463C867.3 437.3 865.7 411.7 866.8 386C868 360.3 872 334.7 875.2 308.8C878.3 283 880.7 257 879.7 231.2C878.7 205.3 874.3 179.7 871 154C867.7 128.3 865.3 102.7 866.5 77C867.7 51.3 872.3 25.7 874.7 12.8L877 0L960 0L960 12.8C960 25.7 960 51.3 960 77C960 102.7 960 128.3 960 154C960 179.7 960 205.3 960 231.2C960 257 960 283 960 308.8C960 334.7 960 360.3 960 386C960 411.7 960 437.3 960 463C960 488.7 960 514.3 960 527.2L960 540Z" fill="#3b91c6"></path><path d="M927 540L923.3 527.2C919.7 514.3 912.3 488.7 907.2 463C902 437.3 899 411.7 902 386C905 360.3 914 334.7 917.5 308.8C921 283 919 257 914.5 231.2C910 205.3 903 179.7 898.8 154C894.7 128.3 893.3 102.7 894 77C894.7 51.3 897.3 25.7 898.7 12.8L900 0L960 0L960 12.8C960 25.7 960 51.3 960 77C960 102.7 960 128.3 960 154C960 179.7 960 205.3 960 231.2C960 257 960 283 960 308.8C960 334.7 960 360.3 960 386C960 411.7 960 437.3 960 463C960 488.7 960 514.3 960 527.2L960 540Z" fill="#3e6aab"></path></svg>